HIERARCHY
ROOT Hips
{
	OFFSET 0.00 0.00 0.00
	CHANNELS 6 Xposition Yposition Zposition Xrotation Yrotation Zrotation
	JOINT Spine
	{
		OFFSET 0.00000 4.88528 0.00000
		CHANNELS 3 Xrotation Yrotation Zrotation
		JOINT Head
		{
			OFFSET 0.00000 16.49416 0.00000
			CHANNELS 3 Xrotation Yrotation Zrotation
			End Site
			{
				OFFSET 0.00000 4.52755 0.00000
			}
		}
		JOINT LeftShoulder
		{
			OFFSET 0.00000 10.66345 0.00000
			CHANNELS 3 Xrotation Yrotation Zrotation
			JOINT LeftArm
			{
				OFFSET 7.53191 0.00000 0.00000
				CHANNELS 3 Xrotation Yrotation Zrotation
				JOINT LeftForeArm
				{
					OFFSET 10.22920 0.00000 0.00000
					CHANNELS 3 Yrotation Zrotation Xrotation
					JOINT LeftHand
					{
						OFFSET 8.67349 0.00000 0.00000
						CHANNELS 3 Xrotation Yrotation Zrotation
						JOINT LeftHandThumb1
						{
							OFFSET 0.00000 0.00000 0.00000
							CHANNELS 3 Xrotation Zrotation Yrotation
							End Site
							{
								OFFSET 0.00000 0.00000 3.93700
							}
						}
						End Site
						{
							OFFSET 3.93700 0.00000 0.00000
						}
					}
				}
			}
		}
		JOINT RightShoulder
		{
			OFFSET 0.00000 10.66345 0.00000
			CHANNELS 3 Xrotation Yrotation Zrotation
			JOINT RightArm
			{
				OFFSET -7.53191 0.00000 0.00000
				CHANNELS 3 Xrotation Yrotation Zrotation
				JOINT RightForeArm
				{
					OFFSET -10.22920 0.00000 0.00000
					CHANNELS 3 Yrotation Zrotation Xrotation
					JOINT RightHand
					{
						OFFSET -8.67349 0.00000 0.00000
						CHANNELS 3 Xrotation Yrotation Zrotation
						JOINT RightHandThumb1
						{
							OFFSET 0.00000 0.00000 0.00000
							CHANNELS 3 Xrotation Zrotation Yrotation
							End Site
							{
								OFFSET 0.00000 0.00000 3.93700
							}
						}
						End Site
						{
							OFFSET -3.93700 0.00000 0.00000
						}
					}
				}
			}
		}
	}
	JOINT LeftUpLeg
	{
		OFFSET 2.67219 0.00000 0.00000
		CHANNELS 3 Xrotation Yrotation Zrotation
		JOINT LeftLeg
		{
			OFFSET 0.00000 -16.26339 0.00000
			CHANNELS 3 Xrotation Yrotation Zrotation
			JOINT LeftFoot
			{
				OFFSET 0.00000 -14.32816 0.00000
				CHANNELS 3 Xrotation Yrotation Zrotation
				JOINT LeftToeBase
				{
					OFFSET 0.00000 -1.30219 4.85985
					CHANNELS 3 Xrotation Yrotation Zrotation
					End Site
					{
						OFFSET 0.00000 0.00000 2.95275
					}
				}
			}
		}
	}
	JOINT RightUpLeg
	{
		OFFSET -2.67219 0.00000 0.00000
		CHANNELS 3 Xrotation Yrotation Zrotation
		JOINT RightLeg
		{
			OFFSET 0.00000 -16.26339 0.00000
			CHANNELS 3 Xrotation Yrotation Zrotation
			JOINT RightFoot
			{
				OFFSET 0.00000 -14.32816 0.00000
				CHANNELS 3 Xrotation Yrotation Zrotation
				JOINT RightToeBase
				{
					OFFSET 0.00000 -1.30219 4.85985
					CHANNELS 3 Xrotation Yrotation Zrotation
					End Site
					{
						OFFSET 0.00000 0.00000 2.95275
					}
				}
			}
		}
	}
}
MOTION
Frames: 9
Frame Time: 0.008333
 -0.9199 32.9271 0.0558 9.7944 1.3351 -2.5522 -12.5816 -6.6510 0.4131 13.5723 -4.2139 0.4363 31.4157 32.7559 19.5026 -73.1989 -0.0623 -27.7125 4.0082 0.0000 4.9686 0.4585 -4.4023 5.9518 33.1476 -0.0000 26.2537 -6.5162 -5.4221 -31.7913 -19.2525 0.6046 38.3504 0.0414 -0.0000 10.9880 0.0268 2.6679 -0.5748 32.8623 0.0000 -24.3270 -4.2867 -5.3967 3.5204 -3.6750 -0.0000 0.0000 -1.9396 12.4868 -16.9127 -5.7683 -0.0000 0.0000 -3.8602 1.6403 2.8359 -4.8573 0.0000 -0.0000 -2.5793 -14.2930 3.9301 -2.3963 -0.0000 0.0000
 -0.9221 32.9275 0.0592 9.7836 1.3381 -2.5400 -12.5871 -6.6461 0.4018 13.5675 -4.1986 0.4133 31.3923 32.7613 19.5140 -73.2374 -0.0186 -27.7238 4.0104 0.0000 4.8994 0.4402 -4.4053 5.7117 33.1476 -0.0000 26.2537 -6.5423 -5.4162 -31.7957 -19.2613 0.5984 38.3501 0.0606 -0.0000 11.0372 0.0291 2.6832 -0.6223 32.8623 0.0000 -24.3270 -4.2743 -5.3767 3.5073 -3.6720 0.0000 -0.0000 -1.9312 12.4856 -16.9187 -5.8256 0.0000 -0.0000 -3.8394 1.6417 2.8228 -4.8646 -0.0000 -0.0000 -2.5754 -14.2784 3.9845 -2.3489 0.0000 0.0000
 -0.9237 32.9280 0.0623 9.7648 1.3395 -2.5275 -12.5846 -6.6450 0.3922 13.5643 -4.1942 0.3874 31.3748 32.7505 19.5081 -73.2352 -0.0118 -27.7140 4.0443 0.0000 4.8768 0.4416 -4.4216 5.7093 33.1476 -0.0000 26.2537 -6.5791 -5.3806 -31.8047 -19.2263 0.5877 38.3491 0.0888 -0.0000 11.1177 0.0208 2.5780 -0.4626 32.8623 0.0000 -24.3270 -4.2645 -5.3357 3.4899 -3.6507 -0.0000 -0.0000 -1.9402 12.4687 -16.8839 -5.8731 0.0000 -0.0000 -3.8093 1.6681 2.8127 -4.8721 -0.0000 -0.0000 -2.5878 -14.3162 3.9444 -2.3173 0.0000 -0.0000
 -0.9252 32.9285 0.0642 9.7552 1.3357 -2.5185 -12.5900 -6.6471 0.3876 13.5637 -4.1774 0.3646 31.3571 32.7399 19.5112 -73.1767 -0.0288 -27.6985 4.1108 0.0000 4.8551 0.4480 -4.4684 5.7315 33.1476 -0.0000 26.2537 -6.5898 -5.3572 -31.8026 -19.1993 0.6138 38.3425 0.1030 -0.0000 11.1137 0.0171 2.5123 -0.3903 32.8623 0.0000 -24.3270 -4.2626 -5.3032 3.4785 -3.6331 -0.0000 0.0000 -1.9462 12.4525 -16.8507 -5.8397 0.0000 0.0000 -3.8003 1.6611 2.8058 -4.8580 0.0000 0.0000 -2.6053 -14.3038 3.9815 -2.2776 0.0000 0.0000
 -0.9265 32.9287 0.0664 9.7373 1.3404 -2.5006 -12.5840 -6.6417 0.3696 13.5438 -4.1771 0.3393 31.3257 32.7167 19.5282 -73.2133 0.0552 -27.6942 4.0717 0.0000 4.9890 0.4474 -4.4569 5.7382 33.1476 -0.0000 26.2537 -6.5929 -5.3505 -31.8081 -19.1781 0.6289 38.3481 0.1219 -0.0000 11.0889 0.0194 2.5878 -0.4299 32.8623 0.0000 -24.3270 -4.2470 -5.2957 3.4569 -3.6258 -0.0000 0.0000 -1.9534 12.4554 -16.8154 -5.8115 -0.0000 0.0000 -3.7796 1.6532 2.7861 -4.8527 -0.0000 0.0000 -2.6059 -14.2684 4.0671 -2.3607 0.0000 0.0000
 -0.9284 32.9289 0.0680 9.7166 1.3462 -2.4940 -12.5716 -6.6470 0.3623 13.5278 -4.1726 0.3182 31.3433 32.7333 19.5147 -73.1607 -0.0072 -27.7193 4.1569 0.0000 4.9025 0.4478 -4.5388 5.6400 33.1476 -0.0000 26.2537 -6.6014 -5.3306 -31.8266 -19.1608 0.6345 38.3785 0.1176 -0.0000 11.0418 0.0202 2.4566 -0.4714 32.8623 0.0000 -24.3270 -4.2405 -5.2690 3.4467 -3.5966 -0.0000 -0.0000 -1.9592 12.4336 -16.7910 -5.9144 0.0000 -0.0000 -3.7536 1.6453 2.7807 -4.8531 -0.0000 -0.0000 -2.6161 -14.2705 4.0685 -2.2962 0.0000 0.0000
 -0.9298 32.9290 0.0690 9.7006 1.3513 -2.4777 -12.5630 -6.6501 0.3453 13.4974 -4.1732 0.2990 31.3491 32.7321 19.5136 -73.1522 0.0131 -27.7295 4.1699 0.0000 4.9037 0.4494 -4.5855 5.6035 33.1476 -0.0000 26.2537 -6.5853 -5.3226 -31.8271 -19.1796 0.6388 38.3862 0.1057 -0.0000 10.9721 0.0189 2.4879 -0.4355 32.8623 0.0000 -24.3270 -4.2299 -5.2851 3.4293 -3.5844 0.0000 -0.0000 -1.9667 12.4598 -16.7593 -5.8561 0.0000 0.0000 -3.7320 1.6381 2.7717 -4.8643 -0.0000 -0.0000 -2.6501 -14.3199 4.1284 -2.1709 -0.0000 0.0000
 -0.9316 32.9293 0.0694 9.6851 1.3595 -2.4734 -12.5514 -6.6666 0.3463 13.4671 -4.1668 0.2540 31.3301 32.7261 19.5128 -73.1477 0.0441 -27.7335 4.1896 0.0000 4.9725 0.4447 -4.6681 5.4474 33.1476 -0.0000 26.2537 -6.5909 -5.2950 -31.8353 -19.1909 0.6386 38.3988 0.0736 -0.0000 10.8953 0.0122 2.5581 -0.2739 32.8623 0.0000 -24.3270 -4.2270 -5.2796 3.4240 -3.5616 0.0000 -0.0000 -1.9858 12.4553 -16.7189 -5.8638 -0.0000 -0.0000 -3.7107 1.6440 2.7685 -4.8710 0.0000 0.0000 -2.6477 -14.3432 4.1563 -2.1603 -0.0000 -0.0000
 -0.9331 32.9295 0.0700 9.6679 1.3648 -2.4660 -12.5355 -6.6648 0.3391 13.4174 -4.1817 0.2371 31.3336 32.7212 19.5213 -73.2734 0.2000 -27.7495 4.0813 0.0000 5.0899 0.4305 -4.5867 5.3683 33.1476 -0.0000 26.2537 -6.6013 -5.2880 -31.8327 -19.2228 0.6345 38.4020 0.0516 -0.0000 10.7658 0.0089 2.5307 -0.2016 32.8623 0.0000 -24.3270 -4.2166 -5.2976 3.4140 -3.5474 -0.0000 -0.0000 -1.9856 12.4836 -16.6947 -5.8873 0.0000 0.0000 -3.6954 1.6253 2.7616 -4.8606 -0.0000 -0.0000 -2.6505 -14.3083 4.1850 -2.1769 -0.0000 0.0000
